<?xml version="1.0" standalone="no"?> <!DOCTYPE svg PUBLIC "-//W3C//DTD SVG 1.1//EN" "http://www.w3.org/Graphics/SVG/1.1/DTD/svg11.dtd">  <svg id="svg" width="744.0945" height="1052.362"> 	<defs><linearGradient id="gradient1" x1="0%" y1="0%" x2="0%" y2="100%"><stop offset="0%" style="stop-color:#e64e60;stop-opacity:1"/><stop offset="100%" style="stop-color:#0ab276;stop-opacity:1"/></linearGradient></defs><defs><linearGradient id="gradient2" x1="0%" y1="0%" x2="100%" y2="0%"><stop offset="0%" style="stop-color:#0ab276;stop-opacity:1"/><stop offset="100%" style="stop-color:#0080cc;stop-opacity:1"/></linearGradient></defs><defs><linearGradient id="gradient3" x1="0%" y1="0%" x2="100%" y2="0%"><stop offset="0%" style="stop-color:#e64e60;stop-opacity:1"/><stop offset="100%" style="stop-color:#0080cc;stop-opacity:1"/></linearGradient></defs><text x="292.781095" y="515.8463259731" font-size="10" fill="#0ab276" >Hs2H</text><text x="290.681095" y="473.3266419731" font-size="10" fill="#e64e60" transform="rotate(-60, 70.86614 487.4999)" >Td_2A</text><text x="290.681095" y="473.3266419731" font-size="10" fill="#0080cc" transform="rotate(60, 531.496 487.4999)" >Td_2B</text><text x="290.681095" y="501.6730979731" font-size="4" fill="black" >chr2H</text> <text x="290.681095" y="483.9565629731" font-size="4" fill="black" transform="rotate(-60, 70.86614 487.4999)" >chr2A</text> <text x="290.681095" y="483.9565629731" font-size="4" fill="black" transform="rotate(60, 531.496 487.4999)" >chr2B</text><path d="M 95.5395795593184 460.764219058881 Q 218.064736190119 402.5147208384 106.365702380238 487.4998699731 L 107.213761231661 487.4998699731 Q 218.48876561583 402.269907335321 96.1256209563902 459.749165583814 Z" stroke="#cccccc" fill="#cccccc" style="stroke-width: 0.1px;"/> <path d="M 95.5611918112206 460.72678554052 Q 218.363353357619 402.342314136359 106.962936715237 487.4998699731 L 111.87167397749 487.4998699731 Q 220.817721988745 400.925283746488 98.5799882734635 455.498076690206 Z" stroke="#cccccc" fill="#cccccc" style="stroke-width: 0.1px;"/> <path d="M 99.209624052203 454.407515531166 Q 220.809805178036 400.929854519282 111.855840356071 487.4998699731 L 115.739755834519 487.4998699731 Q 222.75176291726 399.808664695786 102.438186006265 448.815482191347 Z" stroke="#cccccc" fill="#cccccc" style="stroke-width: 0.1px;"/> <path d="M 102.15346034082 449.308641510116 Q 222.73640275167 399.817532891524 115.709035503339 487.4998699731 L 119.517942993543 487.4998699731 Q 224.640856496771 398.717996009131 104.567065526478 445.128154699145 Z" stroke="#cccccc" fill="#cccccc" style="stroke-width: 0.1px;"/> <path d="M 102.399197946295 448.883011492104 Q 222.671334037379 399.855100331236 115.578898074759 487.4998699731 L 119.382663520034 487.4998699731 Q 224.573216760017 398.757047829354 104.559037834544 445.142059069442 Z" stroke="#cccccc" fill="#cccccc" style="stroke-width: 0.1px;"/> <path d="M 104.547139350884 445.162667847674 Q 224.599943671424 398.741617039858 119.436117342848 487.4998699731 L 178.890117431723 487.4998699731 Q 254.326943715861 381.578725562002 132.017689611911 397.582279083702 Z" stroke="#cccccc" fill="#cccccc" style="stroke-width: 0.1px;"/> <path d="M 132.103611891567 397.433457329834 Q 254.463918851378 381.49964293064 179.164067702755 487.4998699731 L 195.131460438178 487.4998699731 Q 262.447615219089 376.890253683613 137.212210576047 388.585104852836 Z" stroke="#cccccc" fill="#cccccc" style="stroke-width: 0.1px;"/> <path d="M 192.204833990742 293.335087057083 Q 321.968217552282 342.526017904216 314.172665104564 487.4998699731 L 331.778174920201 487.4998699731 Q 330.770972460101 337.443744988576 201.573366488111 277.108312779279 Z" stroke="#cccccc" fill="#cccccc" style="stroke-width: 0.1px;"/> <path d="M 201.596060036186 277.069006401009 Q 330.947970851759 337.341554919506 332.132171703518 487.4998699731 L 428.591322094998 487.4998699731 Q 379.177546047499 309.496196697345 245.906764126887 200.320615596766 Z" stroke="#cccccc" fill="#cccccc" style="stroke-width: 0.1px;"/> <path d="M 246.047812376894 200.076312861435 Q 378.977797418181 309.611521622252 428.191824836361 487.4998699731 L 436.053355391378 487.4998699731 Q 382.908562695689 307.342093231161 250.84861227561 191.761083519886 Z" stroke="#cccccc" fill="#cccccc" style="stroke-width: 0.1px;"/> <path d="M 250.862456098086 191.737105315986 Q 382.947326447685 307.319712968511 436.13088289537 487.4998699731 L 460.874756784821 487.4998699731 Q 395.31926339241 300.176771843077 266.524184772271 164.610195517941 Z" stroke="#cccccc" fill="#cccccc" style="stroke-width: 0.1px;"/> <path d="M 266.846489084053 164.051948074436 Q 395.734944924104 299.936777998857 461.706119848207 487.4998699731 L 465.921663478725 487.4998699731 Q 397.842716739363 298.719855373927 270.199047868906 158.245145923709 Z" stroke="#cccccc" fill="#cccccc" style="stroke-width: 0.1px;"/> <path d="M 270.877423010507 157.070165711864 Q 398.05612581262 298.596643588034 466.34848162524 487.4998699731 L 483.160848391094 487.4998699731 Q 406.462309195547 293.743331349044 280.664719889814 140.118070248144 Z" stroke="#cccccc" fill="#cccccc" style="stroke-width: 0.1px;"/> <path d="M 281.123011488366 139.324285914771 Q 407.703418593008 293.026776504326 485.643067186015 487.4998699731 L 487.679915267308 487.4998699731 Q 408.721842633654 292.43878911031 282.385527680086 137.137543725333 Z" stroke="#cccccc" fill="#cccccc" style="stroke-width: 0.1px;"/> <path d="M 282.473278220284 136.985555331319 Q 406.950801180149 293.461300370237 484.137832360298 487.4998699731 L 485.24431081217 487.4998699731 Q 407.504040406085 293.141887554216 283.17989184645 135.761664629477 Z" stroke="#cccccc" fill="#cccccc" style="stroke-width: 0.1px;"/> <path d="M 282.862266688499 136.311807540812 Q 406.499030947267 293.722130035803 483.234291894535 487.4998699731 L 484.507312113396 487.4998699731 Q 407.135541056698 293.354640752781 283.644156425633 134.957534790179 Z" stroke="#cccccc" fill="#cccccc" style="stroke-width: 0.1px;"/> <path d="M 283.730876130146 134.807331855945 Q 409.254427412471 292.131301144893 488.745084824943 487.4998699731 L 493.40153965159 487.4998699731 Q 411.582654825795 290.787098421076 287.061487336996 129.038544025422 Z" stroke="#cccccc" fill="#cccccc" style="stroke-width: 0.1px;"/> <path d="M 283.992480700523 134.35421944856 Q 409.506356912891 291.985849580009 489.248943825782 487.4998699731 L 493.248681417759 487.4998699731 Q 411.506225708879 290.831224792301 286.901620059247 129.315442272951 Z" stroke="#cccccc" fill="#cccccc" style="stroke-width: 0.1px;"/> <path d="M 287.102317577642 128.967823974138 Q 411.612745151174 290.769725763619 493.461720302348 487.4998699731 L 495.668536489063 487.4998699731 Q 412.716153244531 290.132672803893 288.127164870503 127.192736392903 Z" stroke="#cccccc" fill="#cccccc" style="stroke-width: 0.1px;"/> <path d="M 311.986893418671 123.298858047646 Q 278.037710387519 341.165629369478 106.311650775037 487.4998699731 L 106.917368748358 487.4998699731 Q 278.340569374179 341.340485086953 312.453914175941 124.107761727427 Z" stroke="#cccccc" fill="#cccccc" style="stroke-width: 0.1px;"/> <path d="M 312.410597116956 124.03273438043 Q 278.064736190119 341.181232723885 106.365702380238 487.4998699731 L 115.711829552424 487.4998699731 Q 282.737799776212 343.879227243256 320.033063165453 137.235232855396 Z" stroke="#cccccc" fill="#cccccc" style="stroke-width: 0.1px;"/> <path d="M 312.478746976137 124.150773399061 Q 278.560392936621 341.467400279903 107.357015873243 487.4998699731 L 112.016213495985 487.4998699731 Q 280.889991747992 342.812394780752 315.495101911907 129.375253401476 Z" stroke="#cccccc" fill="#cccccc" style="stroke-width: 0.1px;"/> <path d="M 316.642345648651 131.362337842182 Q 280.827971571638 342.776587415239 111.892173143276 487.4998699731 L 113.291050404951 487.4998699731 Q 281.527410202476 343.180408497035 317.38145343769 132.642510085067 Z" stroke="#cccccc" fill="#cccccc" style="stroke-width: 0.1px;"/> <path d="M 319.793841571576 136.820888900534 Q 282.760933650106 343.892583591576 115.758097300213 487.4998699731 L 119.513612877154 487.4998699731 Q 284.638691438577 344.976707556222 323.690899905972 143.570791935767 Z" stroke="#cccccc" fill="#cccccc" style="stroke-width: 0.1px;"/> <path d="M 321.871518387958 140.419530708215 Q 282.768772058967 343.897109099042 115.773774117933 487.4998699731 L 117.618882737488 487.4998699731 Q 283.691326368744 344.429746078134 323.937475170978 143.997872822647 Z" stroke="#cccccc" fill="#cccccc" style="stroke-width: 0.1px;"/> <path d="M 324.232829707802 144.509441886672 Q 284.678359222255 344.999609761807 119.592948444511 487.4998699731 L 167.657971098183 487.4998699731 Q 308.710870549091 358.874786645659 355.096765600008 197.967346973523 Z" stroke="#cccccc" fill="#cccccc" style="stroke-width: 0.1px;"/> <path d="M 355.4120494496 198.513434619821 Q 310.576179189512 359.951723091327 171.388588379023 487.4998699731 L 174.00630789798 487.4998699731 Q 311.88503894899 360.707393625793 356.115454733305 199.731768309511 Z" stroke="#cccccc" fill="#cccccc" style="stroke-width: 0.1px;"/> <path d="M 355.693936976164 199.00167813785 Q 308.906950530052 358.987993475449 168.050131060104 487.4998699731 L 172.250314525032 487.4998699731 Q 311.007042262516 360.20048200251 356.978009396387 201.225756810274 Z" stroke="#cccccc" fill="#cccccc" style="stroke-width: 0.1px;"/> <path d="M 419.535054400999 309.577737129636 Q 413.387296208812 419.309749178107 377.010822417625 487.4998699731 L 428.193295949383 487.4998699731 Q 438.978532974691 434.084856613782 443.640865005067 351.330225853513 Z" stroke="#cccccc" fill="#cccccc" style="stroke-width: 0.1px;"/> <path d="M 443.650295896287 351.346560636268 Q 439.20973647679 434.218342017956 428.655702953579 487.4998699731 L 436.053355391378 487.4998699731 Q 442.908562695689 436.353860331124 448.692371465892 360.079691698425 Z" stroke="#cccccc" fill="#cccccc" style="stroke-width: 0.1px;"/> <path d="M 448.71386415378 360.116918125839 Q 442.947326447685 436.376240593773 436.13088289537 487.4998699731 L 460.874756784821 487.4998699731 Q 455.31926339241 443.519181719207 469.910447738275 396.830477841065 Z" stroke="#cccccc" fill="#cccccc" style="stroke-width: 0.1px;"/> <path d="M 470.128819610483 397.208709018672 Q 455.353847742252 443.539149002899 460.943925484505 487.4998699731 L 466.184744563899 487.4998699731 Q 457.974257281949 445.05204315603 476.597174735813 408.412228737142 Z" stroke="#cccccc" fill="#cccccc" style="stroke-width: 0.1px;"/> <path d="M 476.638026730955 408.482986468318 Q 458.05612581262 445.099309974251 466.34848162524 487.4998699731 L 483.15249567625 487.4998699731 Q 466.458132838125 449.950210992159 494.409557106535 439.264180007077 Z" stroke="#cccccc" fill="#cccccc" style="stroke-width: 0.1px;"/> <path d="M 494.416666455301 439.276493760348 Q 468.805680344759 451.30556817705 487.847590689518 487.4998699731 L 488.614706355077 487.4998699731 Q 469.189238177539 451.527015395055 495.210440293098 440.651350377132 Z" stroke="#cccccc" fill="#cccccc" style="stroke-width: 0.1px;"/> <path d="M 495.302514063684 440.810826825831 Q 466.499030947267 449.973823526482 483.234291894535 487.4998699731 L 487.679915267308 487.4998699731 Q 468.721842633654 451.257164451975 499.298921119033 447.732806893423 Z" stroke="#cccccc" fill="#cccccc" style="stroke-width: 0.1px;"/> <path d="M 499.525273308431 448.124860385863 Q 469.254427412471 451.564652417391 488.745084824943 487.4998699731 L 493.598095879384 487.4998699731 Q 471.680932939692 452.965596036722 503.671432212258 455.306218263547 Z" stroke="#cccccc" fill="#cccccc" style="stroke-width: 0.1px;"/> <path d="M 503.754431495071 455.44997723837 Q 471.801773786502 453.035363532157 493.839777573004 487.4998699731 L 495.547045084511 487.4998699731 Q 472.655407542255 453.528209210831 504.760014341597 457.191697819772 Z" stroke="#cccccc" fill="#cccccc" style="stroke-width: 0.1px;"/> <path d="M 132.103611891567 397.433457329834 Q 301.181095 312.737364908192 360.081289572944 206.600795746192 L 363.788518551211 213.021904691841 Q 301.181095 312.737364908192 137.212210576047 388.585104852836 Z" stroke="#cccccc" fill="#cccccc" style="stroke-width: 0.1px;"/> <path d="M 137.315133565858 388.406837005217 Q 301.181095 308.224054745883 363.861135813603 213.147681479811 L 394.6744220959 266.517858868915 Q 301.181095 308.224054745883 175.797559559533 321.753319985663 Z" stroke="#cccccc" fill="#cccccc" style="stroke-width: 0.1px;"/> <path d="M 201.596060036186 277.069006401009 Q 301.181095 252.555139443779 407.442611596538 288.633011804688 L 497.642543897682 444.863877389543 Q 301.181095 252.555139443779 282.319616836847 137.251704654592 Z" stroke="#cccccc" fill="#cccccc" style="stroke-width: 0.1px;"/> <path d="M 282.473278220284 136.985555331319 Q 301.181095 182.513413908935 497.875109027175 445.266692009892 L 498.408045942021 446.189765823635 Q 301.181095 182.513413908935 283.18872541475 135.74636444037 Z" stroke="#cccccc" fill="#cccccc" style="stroke-width: 0.1px;"/> <path d="M 282.837556212343 136.354607340993 Q 301.181095 182.197939913771 498.218800031535 445.861982291548 L 504.760014341597 457.191697819772 Q 301.181095 182.197939913771 288.021020115244 127.376584501969 Z" stroke="#cccccc" fill="#cccccc" style="stroke-width: 0.1px;"/> <path d="M 95.684243564299 460.513653652228 Q 301.181095 344.277463069389 311.986893418671 123.298858047646 L 355.094550378582 197.963510097462 Q 301.181095 344.277463069389 127.839801072606 404.818594302138 Z" style="stroke-width: 1px;stroke:url(#gradient3);fill:url(#gradient3)"/> <path d="M 95.6485247473793 460.575520457919 Q 301.181095 344.308396472235 312.34955660654 123.92700911507 L 312.614901253093 124.386599524416 Q 301.181095 344.308396472235 96.1592184442199 459.690973027886 Z" style="stroke-width: 1px;stroke:url(#gradient3);fill:url(#gradient3)"/> <path d="M 127.883194358043 404.743434927054 Q 301.181095 316.392353706802 355.414336191718 198.517395373354 L 357.028642446137 201.313455824983 Q 301.181095 316.392353706802 130.084853313645 400.930049755011 Z" style="stroke-width: 1px;stroke:url(#gradient3);fill:url(#gradient3)"/> <path d="M 192.20355433265 293.337303489915 Q 301.181095 260.689287988232 403.014625166727 280.963514333029 L 407.407699898854 288.57254297052 Q 301.181095 260.689287988232 201.573366488111 277.108312779279 Z" style="stroke-width: 1px;stroke:url(#gradient3);fill:url(#gradient3)"/> <path d="M 137.315133565858 388.406837005217 Q 262.475275848316 376.874283811883 195.186781696631 487.4998699731 L 256.882615435193 487.4998699731 Q 293.323192717596 359.064230703465 171.544083446248 329.120556722652 Z" style="stroke-width: 1px;stroke:url(#gradient1);fill:url(#gradient1)"/> <path d="M 176.13281133655 321.172646874541 Q 312.276559474163 348.121499304511 294.789348948326 487.4998699731 L 311.626234433688 487.4998699731 Q 320.695002216844 343.261109120867 181.947298308752 311.10166001874 Z" style="stroke-width: 1px;stroke:url(#gradient1);fill:url(#gradient1)"/> <path d="M 190.994976176932 295.430622260535 Q 320.761167034662 343.222908845489 311.758564069324 487.4998699731 L 313.859361672162 487.4998699731 Q 321.811565836081 342.616460814734 191.851336645815 293.947362418837 Z" style="stroke-width: 1px;stroke:url(#gradient1);fill:url(#gradient1)"/> <path d="M 357.581037069188 202.270231377935 Q 311.627279294206 360.558576019718 173.490788588411 487.4998699731 L 254.302338000807 487.4998699731 Q 352.033054000404 383.886860923156 391.615137464891 261.219022453193 Z" style="stroke-width: 1px;stroke:url(#gradient2);fill:url(#gradient2)"/> <path d="M 399.479137769635 274.839870531746 Q 370.813483276645 394.729746821291 291.86319655329 487.4998699731 L 373.997399883585 487.4998699731 Q 411.880584941792 418.439849022502 419.508966628665 309.532551782496 Z" style="stroke-width: 1px;stroke:url(#gradient2);fill:url(#gradient2)"/> <path d="M 181.738633004717 311.463078927105 Q 301.181095 269.752175706828 388.105271035619 255.139755469913 L 397.977806607971 272.239488680758 Q 301.181095 269.752175706828 188.671753431215 299.454562093416 Z" style="stroke-width: 1px;stroke:url(#gradient3);fill:url(#gradient3)"/> <path d="M 190.994976176932 295.430622260535 Q 301.181095 261.735947373542 402.477882775072 280.033849240107 L 402.941331817795 280.836566528822 Q 301.181095 261.735947373542 191.851336645815 293.947362418837 Z" style="stroke-width: 1px;stroke:url(#gradient3);fill:url(#gradient3)"/><rect x="106.29921" y="487.4998699731" rx="1" ry="1" width="389.76377" height="8" style="fill:f7f7f7;stroke:black;stroke-width:0.1;fill-opacity:0"/> <rect x="106.29921" y="487.4998699731" rx="1" ry="1" width="389.76377" height="8" transform="rotate(-60, 70.86614 487.4999)" style="fill:#f7f7f7;stroke:black;stroke-width:0.1;fill-opacity:0"/> <rect x="106.29921" y="487.4998699731" rx="1" ry="1" width="389.76377" height="8" transform="rotate(60, 531.496 487.4999)" style="fill:#f7f7f7;stroke:black;stroke-width:0.1;fill-opacity:0"/><rect x="106.29921" y="489.4998699731" rx="1" ry="1" width="389.76377" height="4" style="fill:#0ab276;stroke:#0ab276;stroke-width:0.1"/> <rect x="106.29921" y="489.4998699731" rx="1" ry="1" width="389.76377" height="4" transform="rotate(-60, 70.86614 487.4999)" style="fill:#e64e60;stroke:#e64e60;stroke-width:0.1"/> <rect x="106.29921" y="489.4998699731" rx="1" ry="1" width="389.76377" height="4" transform="rotate(60, 531.496 487.4999)" style="fill:#0080cc;stroke:#0080cc;stroke-width:0.1"/></svg>